<?xml version="1.0" encoding="utf-8"?>
<!-- Generator: Adobe Illustrator 24.0.1, SVG Export Plug-In . SVG Version: 6.00 Build 0)  -->
<svg version="1.1" id="Layer_1" xmlns="http://www.w3.org/2000/svg" xmlns:xlink="http://www.w3.org/1999/xlink" x="0px" y="0px"
	 viewBox="0 0 51.9 48.5" style="enable-background:new 0 0 51.9 48.5;" xml:space="preserve">
<style type="text/css">
	.st0{fill:#104960;stroke:#104960;stroke-width:0.5;}
</style>
<g>
	<path class="st0" d="M44,12.6c-0.7-1.5-1.8-2.9-3-4c0.2-0.2,0.4-0.5,0.4-0.9c0.1-0.4-0.1-0.9-0.4-1.2l-3-3C37.5,3,36.8,3,36.2,3.3
		L34,4.5c-2.8-0.9-5.9-1.5-9-1.5c-0.2,0-0.3,0-0.5,0l0.4-1c0,0,0,0,0-0.1c0.1-0.4,0-0.8-0.2-1.1s-0.6-0.5-1-0.5h-3.4
		c-0.6,0-1.1,0.4-1.2,1l-0.8,2.7c-3,1-5.4,2.7-7.1,4.8c-0.2,0.3-0.2,0.7,0.1,1c0.1,0.1,0.3,0.1,0.4,0.1c0.2,0,0.4-0.1,0.5-0.3
		c1.3-1.7,3.2-3.1,5.5-4l-0.6,2c0,0,0,0,0,0c-0.1,0.5,0,1,0.3,1.3c0.3,0.4,0.7,0.6,1.2,0.6h2.6l-0.7,4.5c0,0.1,0,0.2,0,0.3
		c0.1,0.6,0.6,1.1,1.2,1.1c0.3,0,0.8-0.2,1.1-0.7c0-0.1,3.5-6.8,3.5-6.9c0.2-0.5,0.2-1-0.1-1.4C26.1,6.3,25.6,6,25.1,6l-1.6,0
		L24,4.5c0.3,0,0.7,0,1,0c2.5,0,5,0.3,7.3,1l-3.5,1.9c0,0,0,0,0,0c-0.5,0.3-0.8,0.8-0.9,1.3c-0.1,0.5,0.1,1,0.5,1.4l2.5,2.5
		c-0.5,0.4-1.3,1-2.2,1.6c-0.5-0.7-1.2-1.3-1.9-1.8c-0.3-0.2-0.7-0.1-1,0.2c-0.2,0.3-0.1,0.7,0.2,1c0.6,0.4,1.1,0.9,1.6,1.5
		c-0.6,0.4-1.1,0.8-1.5,1.1c-0.3-0.4-0.7-0.8-1.2-1.1c-0.3-0.2-0.7-0.1-1,0.2c-0.2,0.3-0.1,0.7,0.2,1c1,0.7,1.6,1.9,1.7,3.2
		c0,1.3-0.7,2.5-1.7,3.3c-0.3,0.2-0.4,0.6-0.2,1c0.1,0.2,0.4,0.3,0.6,0.3c0.1,0,0.3,0,0.4-0.1c1.5-1,2.3-2.6,2.3-4.4
		c0-0.2,0-0.5,0-0.7c0.1,0,1.6-0.5,1.7-0.6c0.1,0.4,0.1,0.8,0.1,1.2c0,2.4-1.2,4.6-3.1,5.9c-0.3,0.2-0.4,0.6-0.2,1
		c0.1,0.2,0.4,0.3,0.6,0.3c0.1,0,0.3,0,0.4-0.1c2.3-1.6,3.7-4.2,3.7-7c0-0.6-0.1-1.1-0.2-1.7l1.9-0.6c0.4-0.1,0.6-0.5,0.4-0.9
		c-0.1-0.4-0.5-0.6-0.9-0.4L27,17.3c1.2-0.9,5.2-3.8,5.3-3.9c0.2-0.2,0.3-0.4,0.3-0.6c0-0.3-0.1-0.5-0.3-0.7l-2.9-2.9
		c-0.1-0.1-0.1-0.2-0.1-0.3c0-0.1,0.1-0.2,0.2-0.3L37,4.5l3,3l-5.7,2.6c-0.3,0.1-0.4,0.4-0.5,0.6c-0.1,0.3,0,0.6,0.2,0.8l2.1,2.2
		c0.1,0.1,0.1,0.2,0.1,0.4c0,0.1-0.1,0.2-0.2,0.2l-1.3,0.4c-0.4,0.1-0.6,0.5-0.4,0.9c0.1,0.4,0.5,0.6,0.9,0.4l1.4-0.4c0,0,0,0,0,0
		c0.5-0.2,0.9-0.7,1-1.2c0.1-0.6,0-1.2-0.5-1.6l-1.6-1.7l4-1.9c2.9,2.5,4.4,5.9,4.4,9.9c0,5.9-0.8,8.3-5.9,12.9
		c-1,0.9-1.3,2.6-0.7,5.1c0.1,0.3,0.4,0.6,0.7,0.6c0,0,0.1,0,0.1,0c0.4-0.1,0.6-0.4,0.5-0.8c-0.4-1.9-0.3-3.3,0.3-3.8
		c5.4-4.9,6.3-7.8,6.3-13.9C45.5,16.7,45,14.5,44,12.6L44,12.6z M25.1,7.4c0.1,0,0.1,0.1,0.1,0.1c0,0,0,0.1,0,0.1l-3,5.9l0.6-4.1
		c0-0.2,0-0.5-0.2-0.7c-0.2-0.2-0.4-0.3-0.6-0.3h-3.2c-0.1,0-0.1,0-0.1,0c0,0,0-0.1,0-0.1l1.8-6.3h3.1l-1.6,4.4
		C21.8,6.5,21.9,6.8,22,7c0.2,0.2,0.4,0.4,0.7,0.4L25.1,7.4z"/>
	<path class="st0" d="M39.7,39.9c-0.1-0.4-0.5-0.6-0.9-0.4c-0.4,0.1-0.6,0.5-0.4,0.9c0.1,0.3,0.2,0.7,0.4,1c0.1,0.3,0.1,0.6-0.1,0.9
		c-0.1,0.3-0.4,0.5-0.7,0.5l-12.9,3.3c-0.5,0.1-1-0.1-1.2-0.6c-0.8-1.9-2.6-6.4-7.2-5.7c-0.3,0-0.6,0.1-1,0.1
		c-1.6,0.2-3.2,0.4-3.9,0.3c-1.5-0.2-2.4-0.9-2.6-2c-0.2-0.7,0-1.2,0.3-1.7c0.3-0.6,0.1-1.4-0.4-1.7c-0.3-0.2-0.6-0.3-0.9-0.4
		c0-0.1,0.1-0.3,0.4-0.5c0.2-0.1,0.3-0.3,0.3-0.5c0-0.2,0-0.4-0.1-0.5c0,0-0.5-0.6-1.2-1.2c0.6-0.4,1.5-1.3,1.4-2.2
		c-0.1-0.4-0.3-1-1.4-1.3c-1.2-0.4-1.2-0.9-1.2-1.1c0-0.4,0.2-0.6,0.8-1.1c0.9-0.7,2-1.6,2.8-3.1c0.3-0.5,0.3-1.1,0.1-1.6
		c-0.1-0.3-0.3-0.6-0.5-0.9c-0.3-0.4-0.5-0.9-0.5-1.1c0-0.1,0.1-0.3,0.2-0.6c0.3-0.6,0.6-1.4,0.7-2.5c0.1-1.3,0.4-2.6,0.8-3.7
		c0.1-0.4,0-0.8-0.4-0.9c-0.4-0.1-0.8,0-0.9,0.4c-0.5,1.3-0.8,2.7-0.9,4.1c-0.1,0.9-0.3,1.5-0.6,2c-0.1,0.3-0.3,0.6-0.3,0.9
		c-0.2,0.8,0.3,1.5,0.7,2.2c0.2,0.2,0.3,0.5,0.4,0.7c0.1,0.1,0,0.3,0,0.4c-0.6,1-1.3,1.8-2.5,2.7c-0.5,0.4-1.4,1-1.4,2.2
		c0,1.2,0.7,2,2.2,2.4c0.2,0.1,0.3,0.1,0.4,0.2c-0.1,0.2-0.5,0.7-1,1c-0.1,0-0.1,0.1-0.2,0.2c-0.3,0.4-0.4,1.3,0.4,1.9
		c0.2,0.2,0.4,0.3,0.5,0.4c-0.6,0.8-0.4,1.6-0.1,2.1c0.1,0.1,0.3,0.2,0.4,0.3c0,0,0.4,0.1,0.7,0.3c-0.3,0.5-0.7,1.3-0.4,2.6
		c0.4,1.7,1.7,2.7,3.7,3c0.9,0.2,2.5-0.1,4.3-0.3c0.3,0,0.6-0.1,1-0.1c3.1-0.4,4.6,2.1,5.7,4.9c0.4,0.9,1.3,1.5,2.3,1.5
		c0.2,0,0.4,0,0.6-0.1l12.9-3.3c0.7-0.2,1.2-0.6,1.5-1.2c0.3-0.6,0.4-1.3,0.1-2C39.9,40.5,39.8,40.2,39.7,39.9L39.7,39.9z"/>
	<path class="st0" d="M22,21.5c1.2,0,2.1-0.9,2.1-2.1c0-1.2-0.9-2.1-2.1-2.1s-2.1,0.9-2.1,2.1C19.9,20.5,20.8,21.5,22,21.5L22,21.5z
		 M22,18.7c0.4,0,0.7,0.3,0.7,0.7s-0.3,0.7-0.7,0.7c-0.4,0-0.7-0.3-0.7-0.7S21.6,18.7,22,18.7z"/>
	<path class="st0" d="M18.8,15.1c-1.3,1-2.2,2.6-2.2,4.3c0,1.7,0.9,3.4,2.3,4.4c0.1,0.1,0.3,0.1,0.4,0.1c0.2,0,0.4-0.1,0.6-0.3
		c0.2-0.3,0.1-0.7-0.2-1c-1.1-0.7-1.7-2-1.7-3.2c0-1.3,0.6-2.4,1.6-3.2c0.3-0.2,0.4-0.7,0.1-1C19.6,14.9,19.1,14.8,18.8,15.1z"/>
	<path class="st0" d="M17.9,25.2c-0.7-0.5-1.3-1.1-1.8-1.8c-0.2-0.3-0.6-0.4-1-0.2c-0.3,0.2-0.4,0.6-0.2,1c0.6,0.9,1.3,1.6,2.2,2.2
		c0.1,0.1,0.3,0.1,0.4,0.1c0.2,0,0.4-0.1,0.6-0.3C18.3,25.8,18.2,25.4,17.9,25.2L17.9,25.2z"/>
	<path class="st0" d="M16.9,12.5c-2.2,1.6-3.4,4.2-3.4,6.8c0,0.5,0,1.1,0.1,1.6c0,0.3,0.4,0.6,0.8,0.5c0.4-0.1,0.6-0.4,0.5-0.8
		c-0.1-0.4-0.1-0.9-0.1-1.3c0-2.3,1-4.4,2.9-5.7c0.3-0.2,0.4-0.7,0.1-1C17.7,12.3,17.2,12.3,16.9,12.5z"/>
</g>
</svg>
